<svg width="640" height="640" viewBox="0 0 640 640" fill="none" xmlns="http://www.w3.org/2000/svg">
<mask id="mask0" mask-type="alpha" maskUnits="userSpaceOnUse" x="0" y="0" width="640" height="640">
<path fill-rule="evenodd" clip-rule="evenodd" d="M0 24C0 10.7452 10.7452 0 24 0H296C309.255 0 320 10.7452 320 24V160H400C444.183 160 480 195.817 480 240V320C568.366 320 640 391.634 640 480C640 568.366 568.366 640 480 640C391.634 640 320 568.366 320 480H240C195.817 480 160 444.183 160 400V320H24C10.7452 320 0 309.255 0 296V24Z" fill="url(#paint0_linear)"/>
</mask>
<g mask="url(#mask0)">
<rect width="320" height="320" rx="24" fill="url(#paint1_linear)"/>
<g filter="url(#filter0_d)">
<rect x="160" y="160" width="320" height="320" rx="80" fill="url(#paint2_linear)"/>
</g>
<g filter="url(#filter1_d)">
<rect x="320" y="320" width="320" height="320" rx="160" fill="url(#paint3_linear)"/>
</g>
</g>
<defs>
<filter id="filter0_d" x="113" y="125" width="420" height="420" filterUnits="userSpaceOnUse" color-interpolation-filters="sRGB">
<feFlood flood-opacity="0" result="BackgroundImageFix"/>
<feColorMatrix in="SourceAlpha" type="matrix" values="0 0 0 0 0 0 0 0 0 0 0 0 0 0 0 0 0 0 127 0"/>
<feOffset dx="3" dy="15"/>
<feGaussianBlur stdDeviation="25"/>
<feColorMatrix type="matrix" values="0 0 0 0 0 0 0 0 0 0 0 0 0 0 0 0 0 0 0.6 0"/>
<feBlend mode="normal" in2="BackgroundImageFix" result="effect1_dropShadow"/>
<feBlend mode="normal" in="SourceGraphic" in2="effect1_dropShadow" result="shape"/>
</filter>
<filter id="filter1_d" x="273" y="285" width="420" height="420" filterUnits="userSpaceOnUse" color-interpolation-filters="sRGB">
<feFlood flood-opacity="0" result="BackgroundImageFix"/>
<feColorMatrix in="SourceAlpha" type="matrix" values="0 0 0 0 0 0 0 0 0 0 0 0 0 0 0 0 0 0 127 0"/>
<feOffset dx="3" dy="15"/>
<feGaussianBlur stdDeviation="25"/>
<feColorMatrix type="matrix" values="0 0 0 0 0 0 0 0 0 0 0 0 0 0 0 0 0 0 0.6 0"/>
<feBlend mode="normal" in2="BackgroundImageFix" result="effect1_dropShadow"/>
<feBlend mode="normal" in="SourceGraphic" in2="effect1_dropShadow" result="shape"/>
</filter>
<linearGradient id="paint0_linear" x1="320" y1="320" x2="640" y2="640" gradientUnits="userSpaceOnUse">
<stop stop-color="#185D37"/>
<stop offset="1" stop-color="#0B3D1E"/>
</linearGradient>
<linearGradient id="paint1_linear" x1="0" y1="0" x2="320" y2="320" gradientUnits="userSpaceOnUse">
<stop stop-color="#33C4B3"/>
<stop offset="1" stop-color="#1EA990"/>
</linearGradient>
<linearGradient id="paint2_linear" x1="160" y1="160" x2="480" y2="480" gradientUnits="userSpaceOnUse">
<stop stop-color="#21A394"/>
<stop offset="1" stop-color="#11836E"/>
</linearGradient>
<linearGradient id="paint3_linear" x1="320" y1="320" x2="640" y2="640" gradientUnits="userSpaceOnUse">
<stop stop-color="#185D4F"/>
<stop offset="1" stop-color="#0B3D2F"/>
</linearGradient>
</defs>
</svg>
